<svg xmlns="http://www.w3.org/2000/svg" width="460" height="200" viewBox="0 0 460 200" fill="none">
  <rect width="460" height="200" rx="16" fill="#18181B" />
  <line x1="40" y1="20" x2="40" y2="180" stroke="#27272A" stroke-width="1" />
  <line x1="40" y1="180" x2="260" y2="180" stroke="#27272A" stroke-width="1" />
  <line x1="150" y1="20" x2="150" y2="180" stroke="#27272A" stroke-width="0.5" stroke-dasharray="4 4" opacity="0.3" />
  <line x1="40" y1="100" x2="260" y2="100" stroke="#27272A" stroke-width="0.5" stroke-dasharray="4 4" opacity="0.3" />
  <path d="M 40 180 C 95 30, 205 170, 260 20" stroke="#A78BFA" stroke-width="3" fill="none" stroke-linecap="round" />
  <line x1="40" y1="180" x2="95" y2="30" stroke="#A78BFA" stroke-width="1" stroke-dasharray="4 4" opacity="0.5" />
  <line x1="260" y1="20" x2="205" y2="170" stroke="#A78BFA" stroke-width="1" stroke-dasharray="4 4" opacity="0.5" />
  <circle cx="95" cy="30" r="6" fill="#18181B" stroke="#C4B5FD" stroke-width="2.5" />
  <circle cx="205" cy="170" r="6" fill="#18181B" stroke="#C4B5FD" stroke-width="2.5" />
  <circle cx="40" cy="180" r="4" fill="#A78BFA" />
  <circle cx="260" cy="20" r="4" fill="#A78BFA" />
  <text x="40" y="196" font-family="monospace" font-size="10" fill="#52525B">0</text>
  <text x="256" y="196" font-family="monospace" font-size="10" fill="#52525B">1</text>
  <text x="24" y="24" font-family="monospace" font-size="10" fill="#52525B">1</text>
  <rect x="290" y="40" rx="10" ry="10" width="150" height="120" fill="#27272A" />
  <text x="310" y="66" font-family="monospace" font-size="10" fill="#71717A">Output</text>
  <text x="310" y="88" font-family="monospace" font-size="11" fill="#E4E4E7">cubic-bezier(</text>
  <text x="316" y="104" font-family="monospace" font-size="12" fill="#A78BFA" font-weight="bold">0.25, 0.1,</text>
  <text x="316" y="120" font-family="monospace" font-size="12" fill="#A78BFA" font-weight="bold">0.25, 1.0</text>
  <text x="310" y="136" font-family="monospace" font-size="11" fill="#E4E4E7">)</text>
  <rect x="310" y="142" rx="6" width="60" height="20" fill="#A78BFA" opacity="0.15" />
  <text x="326" y="156" font-family="sans-serif" font-size="10" fill="#A78BFA" font-weight="600">Copy</text>
</svg>
