<svg xmlns="http://www.w3.org/2000/svg" width="460" height="200" viewBox="0 0 460 200" fill="none">
  <rect width="460" height="200" rx="16" fill="#18181B"/>
  <rect x="40" y="20" width="160" height="160" rx="10" stroke="#3B82F6" stroke-width="2" fill="#27272A" opacity="0.6"/>
  <text x="80" y="14" font-family="monospace" font-size="9" fill="#60A5FA">viewport</text>
  <rect x="60" y="30" width="120" height="18" rx="4" fill="#3F3F46" opacity="0.3"/>
  <rect x="60" y="56" width="120" height="18" rx="4" fill="#3F3F46" opacity="0.3"/>
  <rect x="60" y="86" width="120" height="24" rx="6" fill="#60A5FA" opacity="0.85"/>
  <text x="90" y="102" font-family="sans-serif" font-size="10" fill="white" font-weight="600">In Range ✓</text>
  <rect x="60" y="118" width="120" height="18" rx="4" fill="#3F3F46" opacity="0.3"/>
  <rect x="60" y="144" width="120" height="18" rx="4" fill="#3F3F46" opacity="0.3"/>
  <rect x="212" y="24" width="6" height="152" rx="3" fill="#27272A"/>
  <rect x="212" y="60" width="6" height="50" rx="3" fill="#60A5FA"/>
  <line x1="240" y1="50" x2="240" y2="150" stroke="#60A5FA" stroke-width="1.5" opacity="0.6"/>
  <line x1="236" y1="50" x2="244" y2="50" stroke="#60A5FA" stroke-width="1.5" opacity="0.6"/>
  <line x1="236" y1="150" x2="244" y2="150" stroke="#60A5FA" stroke-width="1.5" opacity="0.6"/>
  <text x="248" y="104" font-family="monospace" font-size="9" fill="#60A5FA" opacity="0.7">range</text>
  <rect x="280" y="40" rx="10" ry="10" width="160" height="120" fill="#27272A"/>
  <text x="298" y="62" font-family="monospace" font-size="10" fill="#71717A">Generated CSS</text>
  <text x="298" y="84" font-family="monospace" font-size="10" fill="#E4E4E7">animation-timeline:</text>
  <text x="306" y="98" font-family="monospace" font-size="11" fill="#60A5FA" font-weight="bold">view();</text>
  <text x="298" y="118" font-family="monospace" font-size="10" fill="#E4E4E7">animation-range:</text>
  <text x="306" y="132" font-family="monospace" font-size="11" fill="#60A5FA" font-weight="bold">entry 0% exit 100%;</text>
</svg>
