<svg xmlns="http://www.w3.org/2000/svg" width="460" height="200" viewBox="0 0 460 200" fill="none">
  <rect width="460" height="200" rx="16" fill="#18181B" />
  <line x1="40" y1="20" x2="40" y2="180" stroke="#27272A" stroke-width="1" />
  <line x1="40" y1="180" x2="420" y2="180" stroke="#27272A" stroke-width="1" />
  <line x1="40" y1="70" x2="420" y2="70" stroke="#34D399" stroke-width="1" stroke-dasharray="4 4" opacity="0.3" />
  <text x="424" y="74" font-family="monospace" font-size="9" fill="#34D399" opacity="0.5">1.0</text>
  <path d="M 40 180 C 60 180, 80 40, 120 50 S 155 110, 175 70 S 200 42, 230 65 S 260 84, 280 72 S 305 62, 330 70 S 360 74, 420 70"
            stroke="#34D399" stroke-width="3" fill="none" stroke-linecap="round" />
  <circle cx="40" cy="180" r="4" fill="#34D399" />
  <circle cx="420" cy="70" r="4" fill="#34D399" />
  <line x1="120" y1="50" x2="120" y2="70" stroke="#FBBF24" stroke-width="1" stroke-dasharray="2 2" opacity="0.5" />
  <text x="108" y="44" font-family="monospace" font-size="8" fill="#FBBF24" opacity="0.6">overshoot</text>
  <text x="40" y="196" font-family="monospace" font-size="10" fill="#52525B">0s</text>
  <text x="410" y="196" font-family="monospace" font-size="10" fill="#52525B">1.5s</text>
</svg>
