<svg width="80" height="79" viewBox="0 0 80 79" fill="none" xmlns="http://www.w3.org/2000/svg">
<path d="M9.46495 19.7937C9.46495 21.2664 10.6589 22.4604 12.1316 22.4604C13.6044 22.4604 14.7983 21.2664 14.7983 19.7937C14.7983 18.3209 13.6044 17.127 12.1316 17.127C10.6589 17.127 9.46495 18.3209 9.46495 19.7937ZM12.1316 19.7937H11.6316V21.3633H12.1316H12.6316V19.7937H12.1316ZM12.1316 24.5027H11.6316V27.642H12.1316H12.6316V24.5027H12.1316ZM12.1316 30.7813H11.6316V33.9206H12.1316H12.6316V30.7813H12.1316ZM12.1316 37.06H11.6316V40.1993H12.1316H12.6316V37.06H12.1316ZM12.1316 43.3386H11.6316V46.4779H12.1316H12.6316V43.3386H12.1316ZM12.1316 49.6172H11.6316V52.7566H12.1316H12.6316V49.6172H12.1316ZM12.1316 55.8959H11.6316V59.0352H12.1316H12.6316V55.8959H12.1316ZM12.1316 62.1745H11.6316V65.3138H12.1316H12.6316V62.1745H12.1316ZM12.1316 68.4532H11.6316V70.0228H12.1316H12.6316V68.4532H12.1316ZM9.46495 19.7937C9.46495 21.2664 10.6589 22.4604 12.1316 22.4604C13.6044 22.4604 14.7983 21.2664 14.7983 19.7937C14.7983 18.3209 13.6044 17.127 12.1316 17.127C10.6589 17.127 9.46495 18.3209 9.46495 19.7937ZM12.1316 19.7937H11.6316V21.3633H12.1316H12.6316V19.7937H12.1316ZM12.1316 24.5027H11.6316V27.642H12.1316H12.6316V24.5027H12.1316ZM12.1316 30.7813H11.6316V33.9206H12.1316H12.6316V30.7813H12.1316ZM12.1316 37.06H11.6316V40.1993H12.1316H12.6316V37.06H12.1316ZM12.1316 43.3386H11.6316V46.4779H12.1316H12.6316V43.3386H12.1316ZM12.1316 49.6172H11.6316V52.7566H12.1316H12.6316V49.6172H12.1316ZM12.1316 55.8959H11.6316V59.0352H12.1316H12.6316V55.8959H12.1316ZM12.1316 62.1745H11.6316V65.3138H12.1316H12.6316V62.1745H12.1316ZM12.1316 68.4532H11.6316V70.0228H12.1316H12.6316V68.4532H12.1316Z" fill="#5D5D5D"/>
<path d="M70.3483 66.4154C70.3542 64.9426 69.1651 63.7439 67.6924 63.738C66.2196 63.732 65.0209 64.9211 65.015 66.3939C65.0091 67.8666 66.1981 69.0653 67.6709 69.0713C69.1436 69.0772 70.3423 67.8881 70.3483 66.4154ZM67.6816 66.4046L68.1816 66.4066L68.1875 64.9404L67.6876 64.9384L67.1876 64.9364L67.1816 66.4026L67.6816 66.4046ZM67.6994 62.006L68.1994 62.0081L68.2112 59.0757L67.7112 59.0736L67.2112 59.0716L67.1994 62.004L67.6994 62.006ZM67.723 56.1412L68.223 56.1433L68.2348 53.2109L67.7348 53.2088L67.2349 53.2068L67.223 56.1392L67.723 56.1412ZM67.7467 50.2764L68.2467 50.2785L68.2585 47.3461L67.7585 47.344L67.2585 47.342L67.2467 50.2744L67.7467 50.2764ZM67.7703 44.4116L68.2703 44.4137L68.2821 41.4813L67.7821 41.4792L67.2822 41.4772L67.2703 44.4096L67.7703 44.4116ZM67.794 38.5468L68.294 38.5489L68.3058 35.6165L67.8058 35.6144L67.3058 35.6124L67.294 38.5448L67.794 38.5468ZM67.8176 32.682L68.3176 32.6841L68.3294 29.7517L67.8294 29.7496L67.3294 29.7476L67.3176 32.68L67.8176 32.682ZM67.8413 26.8172L68.3413 26.8193L68.3531 23.8869L67.8531 23.8849L67.3531 23.8828L67.3413 26.8152L67.8413 26.8172ZM67.8649 20.9525L68.3649 20.9545L68.3767 18.0221L67.8767 18.0201L67.3767 18.018L67.3649 20.9504L67.8649 20.9525ZM67.8886 15.0877L68.3886 15.0897L68.3945 13.6235L67.8945 13.6215L67.3945 13.6194L67.3886 15.0856L67.8886 15.0877ZM70.3483 66.4154C70.3542 64.9426 69.1651 63.7439 67.6924 63.738C66.2196 63.732 65.0209 64.9211 65.015 66.3939C65.0091 67.8666 66.1981 69.0653 67.6709 69.0713C69.1436 69.0772 70.3423 67.8881 70.3483 66.4154ZM67.6816 66.4046L68.1816 66.4066L68.1875 64.9404L67.6876 64.9384L67.1876 64.9364L67.1816 66.4026L67.6816 66.4046ZM67.6994 62.006L68.1994 62.0081L68.2112 59.0757L67.7112 59.0736L67.2112 59.0716L67.1994 62.004L67.6994 62.006ZM67.723 56.1412L68.223 56.1433L68.2348 53.2109L67.7348 53.2088L67.2349 53.2068L67.223 56.1392L67.723 56.1412ZM67.7467 50.2764L68.2467 50.2785L68.2585 47.3461L67.7585 47.344L67.2585 47.342L67.2467 50.2744L67.7467 50.2764ZM67.7703 44.4116L68.2703 44.4137L68.2821 41.4813L67.7821 41.4792L67.2822 41.4772L67.2703 44.4096L67.7703 44.4116ZM67.794 38.5468L68.294 38.5489L68.3058 35.6165L67.8058 35.6144L67.3058 35.6124L67.294 38.5448L67.794 38.5468ZM67.8176 32.682L68.3176 32.6841L68.3294 29.7517L67.8294 29.7496L67.3294 29.7476L67.3176 32.68L67.8176 32.682ZM67.8413 26.8172L68.3413 26.8193L68.3531 23.8869L67.8531 23.8849L67.3531 23.8828L67.3413 26.8152L67.8413 26.8172ZM67.8649 20.9525L68.3649 20.9545L68.3767 18.0221L67.8767 18.0201L67.3767 18.018L67.3649 20.9504L67.8649 20.9525ZM67.8886 15.0877L68.3886 15.0897L68.3945 13.6235L67.8945 13.6215L67.3945 13.6194L67.3886 15.0856L67.8886 15.0877Z" fill="#5D5D5D"/>
<path d="M7.504 8.504V73.496H72.496" stroke="black" stroke-width="2" stroke-linecap="round" stroke-linejoin="round"/>
<path d="M12.2266 69.7498C12.2266 20.2194 69.0361 56.2502 67.5981 13.7284" stroke="black" stroke-width="2" stroke-linecap="round" stroke-linejoin="round"/>
</svg>
